<svg id="Layer_1" data-name="Layer 1" xmlns="http://www.w3.org/2000/svg" viewBox="0 0 649.85 576.6"><defs><style>.cls-1{fill:#f2f2f2;}.cls-2{fill:#fff;}.cls-3{fill:#ccc;}.cls-4{fill:#e6e6e6;}.cls-5{fill:#137daa;}.cls-6{fill:#a0616a;}.cls-7{fill:#3f3d56;}.cls-8{fill:#2f2e41;}</style></defs><title>uploadVideosIllustration</title><path class="cls-1" d="M204.14,604.26l.71-15.91a51.32,51.32,0,0,1,24-6.06c-11.5,9.41-10.07,27.54-17.86,40.19a30.91,30.91,0,0,1-22.66,14.27l-9.62,5.89a51.72,51.72,0,0,1,10.91-41.94,50,50,0,0,1,9.19-8.54C201.06,598.24,204.14,604.26,204.14,604.26Z" transform="translate(0 -68.85)"/><path class="cls-1" d="M602.07,372.58c26-19.77,38.35-53,30.59-84.68-.19-.79-.39-1.57-.61-2.36-5.14-18.81-17.87-36.69-36.42-42.7-15.58-5-32.58-1.16-48.84-3.17-31.9-3.94-56.63-29.75-74-56.78s-30.78-57.27-53.91-79.6C380.74,66.48,318.56,58.56,271.3,82.52s-77.36,77.1-76.08,130.07S228,316.2,273.62,343.07c16.77,9.87,36.17,16.86,55.48,14.42,16.76-2.13,32-11.13,48.66-13.8,26.22-4.2,52.27,7.65,74.95,21.46s44.58,30.19,70.35,36.6C548.08,408,579.08,390.09,602.07,372.58Z" transform="translate(0 -68.85)"/><path class="cls-2" d="M396.71,136H138.14a20.37,20.37,0,0,0-20.34,20.34V285.05a20.36,20.36,0,0,0,20.34,20.34H396.71a20.36,20.36,0,0,0,20.34-20.34V156.36A20.36,20.36,0,0,0,396.71,136Z" transform="translate(0 -68.85)"/><path class="cls-3" d="M396.71,306.4H138.14a21.37,21.37,0,0,1-21.34-21.34V156.36A21.36,21.36,0,0,1,138.14,135H396.71a21.37,21.37,0,0,1,21.34,21.34v128.7A21.37,21.37,0,0,1,396.71,306.4ZM138.14,137a19.36,19.36,0,0,0-19.34,19.34v128.7a19.37,19.37,0,0,0,19.34,19.34H396.71a19.38,19.38,0,0,0,19.34-19.34V156.36A19.37,19.37,0,0,0,396.71,137Z" transform="translate(0 -68.85)"/><path class="cls-4" d="M408.6,342H160.81a8.08,8.08,0,0,1,0-16.15H408.6a8.08,8.08,0,1,1,0,16.15Z" transform="translate(0 -68.85)"/><path class="cls-1" d="M240.25,265a8.71,8.71,0,0,1-4.2-1.09,8.58,8.58,0,0,1-4.5-7.62V184.43a8.7,8.7,0,0,1,13.35-7.34L313,213a8.69,8.69,0,0,1,0,14.68L244.9,263.59A8.62,8.62,0,0,1,240.25,265Z" transform="translate(0 -68.85)"/><path class="cls-2" d="M640.35,229.16H532.3a8.51,8.51,0,0,1-8.5-8.5V166.88a8.5,8.5,0,0,1,8.5-8.5H640.35a8.5,8.5,0,0,1,8.5,8.5v53.78A8.51,8.51,0,0,1,640.35,229.16Z" transform="translate(0 -68.85)"/><path class="cls-3" d="M640.35,230.16H532.3a9.52,9.52,0,0,1-9.5-9.5V166.88a9.51,9.51,0,0,1,9.5-9.5H640.35a9.5,9.5,0,0,1,9.5,9.5v53.78A9.51,9.51,0,0,1,640.35,230.16ZM532.3,159.38a7.5,7.5,0,0,0-7.5,7.5v53.78a7.51,7.51,0,0,0,7.5,7.5H640.35a7.51,7.51,0,0,0,7.5-7.5V166.88a7.5,7.5,0,0,0-7.5-7.5Z" transform="translate(0 -68.85)"/><path class="cls-4" d="M622.6,255.47H549.81a8.08,8.08,0,0,1,0-16.15H622.6a8.08,8.08,0,1,1,0,16.15Z" transform="translate(0 -68.85)"/><path class="cls-5" d="M574.71,212.91a3.72,3.72,0,0,1-1.76-.46,3.59,3.59,0,0,1-1.88-3.19v-30a3.64,3.64,0,0,1,5.58-3.07l28.47,15a3.62,3.62,0,0,1,0,6.13l-28.47,15A3.7,3.7,0,0,1,574.71,212.91Z" transform="translate(0 -68.85)"/><path class="cls-2" d="M571.35,460.51h-108a8.51,8.51,0,0,1-8.5-8.5V398.23a8.51,8.51,0,0,1,8.5-8.5H571.35a8.51,8.51,0,0,1,8.5,8.5V452A8.51,8.51,0,0,1,571.35,460.51Z" transform="translate(0 -68.85)"/><path class="cls-3" d="M571.35,461.51h-108a9.51,9.51,0,0,1-9.5-9.5V398.23a9.52,9.52,0,0,1,9.5-9.5H571.35a9.51,9.51,0,0,1,9.5,9.5V452A9.5,9.5,0,0,1,571.35,461.51Zm-108-70.78a7.51,7.51,0,0,0-7.5,7.5V452a7.5,7.5,0,0,0,7.5,7.5H571.35a7.5,7.5,0,0,0,7.5-7.5V398.23a7.51,7.51,0,0,0-7.5-7.5Z" transform="translate(0 -68.85)"/><path class="cls-4" d="M553.6,487H480.81a8.08,8.08,0,0,1,0-16.15H553.6a8.08,8.08,0,1,1,0,16.15Z" transform="translate(0 -68.85)"/><path class="cls-5" d="M505.44,445.91a3.71,3.71,0,0,1-1.75-.46,3.59,3.59,0,0,1-1.88-3.19v-30a3.64,3.64,0,0,1,5.58-3.07l28.47,15a3.65,3.65,0,0,1,1.12,5,3.6,3.6,0,0,1-1.12,1.11l-28.47,15A3.74,3.74,0,0,1,505.44,445.91Z" transform="translate(0 -68.85)"/><path class="cls-6" d="M204.44,274.45l-55.3.37s-31.5-10.15-45.78-8l-5.47,21.45,39.24,13,68.28-9.91a9.77,9.77,0,1,0-1-16.88Z" transform="translate(0 -68.85)"/><path class="cls-7" d="M136.66,303.32,71.05,284.45l-6-22.26a18,18,0,0,1,1.39-18.92h0c5.6-7.59,10-.05,17.93,5,13.94,1,48.72,12.89,62.84,26.67l-1.11,8.47Z" transform="translate(0 -68.85)"/><path class="cls-5" d="M193.75,285.15a8.71,8.71,0,0,1-4.2-1.09,8.58,8.58,0,0,1-4.5-7.62V204.62a8.68,8.68,0,0,1,13.35-7.34l68.13,35.91a8.69,8.69,0,0,1,2.68,12,8.78,8.78,0,0,1-2.68,2.68L198.4,283.78A8.62,8.62,0,0,1,193.75,285.15Z" transform="translate(0 -68.85)"/><polygon class="cls-6" points="147.98 562.24 161.94 562.24 168.58 508.4 147.98 508.4 147.98 562.24"/><path class="cls-8" d="M144.42,626.53h3.93l15.34-6.24,8.22,6.24h0a17.52,17.52,0,0,1,17.52,17.52v.57h-45Z" transform="translate(0 -68.85)"/><polygon class="cls-6" points="48.58 549.1 61.8 553.57 85.36 504.71 65.84 498.1 48.58 549.1"/><path class="cls-8" d="M46.67,612.49l3.72,1.26,16.53-1,5.78,8.55h0a17.52,17.52,0,0,1,11,22.21l-.18.54L40.87,629.62Z" transform="translate(0 -68.85)"/><path class="cls-8" d="M64.76,399.18s-1.63,19.56,2.44,38.3,12.85,81,12.85,81c-17.77,29.19-28.06,57.92-30,87l25,2,35.79-84.94,3.63-85,26.08,57.87-1.34,4.47a5,5,0,0,0,2.15,5.71h0s-2.44,15.89-.81,15.89,5.7,2.45,5.7,2.45c-10.16,31.63-11.52,61.92-2.2,90.58l22-1,14.43-124.62-10.59-67.65-.82-13-3.67.15-1.86-5.45-3.43-9.37Z" transform="translate(0 -68.85)"/><path class="cls-7" d="M63.35,403.29l-.15-.2c-7.75-10.86,3.91-37,5.67-40.74l-7.41-2.41L55,305.1l-4.74-18.94a41.6,41.6,0,0,1,11.81-40.31l11-10.33,13.32-19.7h21.47l7.36,13.9a31.29,31.29,0,0,1,24.21,32l-1.66,36.48,6.53,45.41v8.21l11.34,18.6L158,381.89c1,1.35,7.77,10.35,7.77,12.81,0,.37-.27.72-.86,1.12-4.59,3.11-30,9.46-41.26,5-12-4.79-59.61,2.4-60.09,2.47Z" transform="translate(0 -68.85)"/><path class="cls-3" d="M282.67,644.26a1.19,1.19,0,0,1-1.18,1.19H1.19a1.19,1.19,0,0,1,0-2.38H281.48a1.18,1.18,0,0,1,1.19,1.18Z" transform="translate(0 -68.85)"/><circle class="cls-6" cx="99.83" cy="112.17" r="28.44"/><path class="cls-6" d="M205.39,202.85l-43.88,33.68s-31.24,10.91-41.35,21.22l8.6,20.4,39.12-13.31,48.47-49.11a9.77,9.77,0,1,0-11-12.88Z" transform="translate(0 -68.85)"/><path class="cls-7" d="M168.76,266.78l-60.94,17.85-21-7.44a18,18,0,0,1-10.31-15.93h0c-.11-9.43,7.93-6.06,17.33-6.81,11.7-7.63,46.62-19.13,66.2-16.66l4.22,7.42Z" transform="translate(0 -68.85)"/><path class="cls-8" d="M119.33,148.19c-2-.06-1.34-3.9-3-5.13a.36.36,0,0,1,0,.11,4,4,0,0,1-7.65.33,6.06,6.06,0,0,0-3.86-4.05c-.1,3.56-2.8,6.65-6,8.19s-6.88,1.79-10.44,1.84-7.17-.06-10.63.81-6.81,2.92-8.28,6.16-.43,7.71,2.8,9.22c-2.5,0-4.62,2.07-5.49,4.42a17.71,17.71,0,0,0-.54,7.42c.7,9.19,2.42,19.09,9.11,25.43,5.11,4.84,12.41,6.78,19.44,6.75s5.79-.67,12.59-2.46c0,0,6.46-18.53,4.83-20.35s-3-4.15-2.68-6.58,2.9-4.59,5.16-3.67c-.38-1-.67-1.16-.85-1.11a6.47,6.47,0,0,0,.3-.84,9.61,9.61,0,0,1,6-6.37,7.46,7.46,0,0,1,8.15,2.47C135.72,163.8,131.1,148.54,119.33,148.19Z" transform="translate(0 -68.85)"/><path class="cls-3" d="M359.08,136v27.16c0,1.35-2.36,2.48-5.54,2.79h-.08c-.53,0-1.09.07-1.66.07a14.31,14.31,0,0,1-5.15-.84l-.45-.19-.43-.23c-.79-.47-1.25-1-1.25-1.61V136Z" transform="translate(0 -68.85)"/></svg>